# xmcd
#
# Track frame offsets: 
#        150
#        13162
#        29039
#        44231
#        56665
#        73060
#        92292
#        108849
#        119931
#        138173
#        148790
#        172432
#        198804
#        215711
#        228475
#        247267
#        267164
#        288606
#
# Disc length: 4213 seconds
#
# Revision: 1
# Processed by: cddbd v1.5.1PL0 Copyright (c) Steve Scherf et al.
# Submitted via: ExactAudioCopy v0.95b3
#
DISCID=2c107312
DTITLE=Jimi Hendrix - Voodoo Child
DYEAR=1900
DGENRE=
TTITLE0=Purple haze
TTITLE1=Hey Joe
TTITLE2=The Wind Cries Mary
TTITLE3=Fire
TTITLE4=Highway Chile
TTITLE5=Are You Experienced?
TTITLE6=Burning Of The Midnight Lamp
TTITLE7=Little Wing
TTITLE8=All Along The Watchtower
TTITLE9=Crosstown Traffic
TTITLE10=Voodoo Child (Slight Return)
TTITLE11=Spanish Castle Magic
TTITLE12=Stone Free
TTITLE13=Izabella
TTITLE14=Stepping Stone
TTITLE15=Angel
TTITLE16=Dolly Dagger
TTITLE17=Hey Baby (New Rising Sun)
EXTD=
EXTT0=
EXTT1=
EXTT2=
EXTT3=
EXTT4=
EXTT5=
EXTT6=
EXTT7=
EXTT8=
EXTT9=
EXTT10=
EXTT11=
EXTT12=
EXTT13=
EXTT14=
EXTT15=
EXTT16=
EXTT17=
PLAYORDER=
